<mxfile host="app.diagrams.net" modified="2023-10-02T17:41:09.487Z" agent="Mozilla/5.0 (Windows NT 10.0; Win64; x64; rv:109.0) Gecko/20100101 Firefox/118.0" version="21.7.5" etag="URtvLm_ysCs__-G-KZJ2" type="github">
  <diagram name="Page-1" id="vYHfL6Xx24jmMErq-vEu">
    <mxGraphModel>
      <root>
        <mxCell id="0" />
        <mxCell id="1" parent="0" />
      </root>
    </mxGraphModel>
  </diagram>
</mxfile>
